<mxfile host="app.diagrams.net" modified="2023-08-02T19:17:19.427Z" agent="Mozilla/5.0 (Windows NT 10.0; Win64; x64) AppleWebKit/537.36 (KHTML, like Gecko) Chrome/115.0.0.0 Safari/537.36" etag="Lwfv02pYf5He8x07FOtq" version="21.6.5" type="device">
  <diagram name="Page-1" id="28e7RBIYn9tv2ysU4OvQ">
    <mxGraphModel dx="880" dy="446" grid="1" gridSize="10" guides="1" tooltips="1" connect="1" arrows="1" fold="1" page="1" pageScale="1" pageWidth="850" pageHeight="1100" math="0" shadow="0">
      <root>
        <mxCell id="0" />
        <mxCell id="1" parent="0" />
        <mxCell id="GRMmmIgCWsTg24t24DnC-3" value="" style="edgeStyle=orthogonalEdgeStyle;rounded=0;orthogonalLoop=1;jettySize=auto;html=1;" edge="1" parent="1" source="GRMmmIgCWsTg24t24DnC-1" target="GRMmmIgCWsTg24t24DnC-2">
          <mxGeometry relative="1" as="geometry" />
        </mxCell>
        <mxCell id="GRMmmIgCWsTg24t24DnC-1" value="Start" style="ellipse;whiteSpace=wrap;html=1;fillColor=#f8cecc;strokeColor=#b85450;" vertex="1" parent="1">
          <mxGeometry x="70" y="50" width="120" height="80" as="geometry" />
        </mxCell>
        <mxCell id="GRMmmIgCWsTg24t24DnC-5" value="" style="edgeStyle=orthogonalEdgeStyle;rounded=0;orthogonalLoop=1;jettySize=auto;html=1;" edge="1" parent="1" source="GRMmmIgCWsTg24t24DnC-2" target="GRMmmIgCWsTg24t24DnC-4">
          <mxGeometry relative="1" as="geometry" />
        </mxCell>
        <mxCell id="GRMmmIgCWsTg24t24DnC-2" value="Open LinkedIn" style="rounded=1;whiteSpace=wrap;html=1;fillColor=#dae8fc;strokeColor=#6c8ebf;" vertex="1" parent="1">
          <mxGeometry x="70" y="180" width="120" height="60" as="geometry" />
        </mxCell>
        <mxCell id="GRMmmIgCWsTg24t24DnC-7" value="" style="edgeStyle=orthogonalEdgeStyle;rounded=0;orthogonalLoop=1;jettySize=auto;html=1;" edge="1" parent="1" source="GRMmmIgCWsTg24t24DnC-4" target="GRMmmIgCWsTg24t24DnC-6">
          <mxGeometry relative="1" as="geometry" />
        </mxCell>
        <mxCell id="GRMmmIgCWsTg24t24DnC-4" value="Go to post" style="rounded=1;whiteSpace=wrap;html=1;fillColor=#dae8fc;strokeColor=#6c8ebf;" vertex="1" parent="1">
          <mxGeometry x="70" y="290" width="120" height="60" as="geometry" />
        </mxCell>
        <mxCell id="GRMmmIgCWsTg24t24DnC-9" value="" style="edgeStyle=orthogonalEdgeStyle;rounded=0;orthogonalLoop=1;jettySize=auto;html=1;" edge="1" parent="1" source="GRMmmIgCWsTg24t24DnC-6" target="GRMmmIgCWsTg24t24DnC-8">
          <mxGeometry relative="1" as="geometry" />
        </mxCell>
        <mxCell id="GRMmmIgCWsTg24t24DnC-6" value="Select job" style="rounded=1;whiteSpace=wrap;html=1;fillColor=#dae8fc;strokeColor=#6c8ebf;" vertex="1" parent="1">
          <mxGeometry x="70" y="400" width="120" height="60" as="geometry" />
        </mxCell>
        <mxCell id="GRMmmIgCWsTg24t24DnC-11" value="" style="edgeStyle=orthogonalEdgeStyle;rounded=0;orthogonalLoop=1;jettySize=auto;html=1;" edge="1" parent="1" source="GRMmmIgCWsTg24t24DnC-8" target="GRMmmIgCWsTg24t24DnC-10">
          <mxGeometry relative="1" as="geometry" />
        </mxCell>
        <mxCell id="GRMmmIgCWsTg24t24DnC-13" value="" style="edgeStyle=orthogonalEdgeStyle;rounded=0;orthogonalLoop=1;jettySize=auto;html=1;" edge="1" parent="1" source="GRMmmIgCWsTg24t24DnC-8" target="GRMmmIgCWsTg24t24DnC-12">
          <mxGeometry relative="1" as="geometry" />
        </mxCell>
        <mxCell id="GRMmmIgCWsTg24t24DnC-8" value="Create new&amp;nbsp; job?" style="rhombus;whiteSpace=wrap;html=1;fillColor=#fff2cc;strokeColor=#d6b656;" vertex="1" parent="1">
          <mxGeometry x="250" y="390" width="130" height="80" as="geometry" />
        </mxCell>
        <mxCell id="GRMmmIgCWsTg24t24DnC-24" value="" style="edgeStyle=orthogonalEdgeStyle;rounded=0;orthogonalLoop=1;jettySize=auto;html=1;" edge="1" parent="1" source="GRMmmIgCWsTg24t24DnC-10" target="GRMmmIgCWsTg24t24DnC-23">
          <mxGeometry relative="1" as="geometry" />
        </mxCell>
        <mxCell id="GRMmmIgCWsTg24t24DnC-10" value="Fill the required information" style="rounded=1;whiteSpace=wrap;html=1;fillColor=#dae8fc;strokeColor=#6c8ebf;" vertex="1" parent="1">
          <mxGeometry x="255" y="520" width="120" height="60" as="geometry" />
        </mxCell>
        <mxCell id="GRMmmIgCWsTg24t24DnC-15" value="" style="edgeStyle=orthogonalEdgeStyle;rounded=0;orthogonalLoop=1;jettySize=auto;html=1;" edge="1" parent="1" source="GRMmmIgCWsTg24t24DnC-12" target="GRMmmIgCWsTg24t24DnC-14">
          <mxGeometry relative="1" as="geometry" />
        </mxCell>
        <mxCell id="GRMmmIgCWsTg24t24DnC-12" value="Search for job roles" style="rounded=1;whiteSpace=wrap;html=1;fillColor=#dae8fc;strokeColor=#6c8ebf;" vertex="1" parent="1">
          <mxGeometry x="440" y="400" width="120" height="60" as="geometry" />
        </mxCell>
        <mxCell id="GRMmmIgCWsTg24t24DnC-19" value="" style="edgeStyle=orthogonalEdgeStyle;rounded=0;orthogonalLoop=1;jettySize=auto;html=1;" edge="1" parent="1" source="GRMmmIgCWsTg24t24DnC-14" target="GRMmmIgCWsTg24t24DnC-18">
          <mxGeometry relative="1" as="geometry" />
        </mxCell>
        <mxCell id="GRMmmIgCWsTg24t24DnC-61" value="" style="edgeStyle=orthogonalEdgeStyle;rounded=0;orthogonalLoop=1;jettySize=auto;html=1;" edge="1" parent="1" source="GRMmmIgCWsTg24t24DnC-14" target="GRMmmIgCWsTg24t24DnC-60">
          <mxGeometry relative="1" as="geometry" />
        </mxCell>
        <mxCell id="GRMmmIgCWsTg24t24DnC-14" value="Found desired role?" style="rhombus;whiteSpace=wrap;html=1;fillColor=#fff2cc;strokeColor=#d6b656;" vertex="1" parent="1">
          <mxGeometry x="620" y="390" width="130" height="80" as="geometry" />
        </mxCell>
        <mxCell id="GRMmmIgCWsTg24t24DnC-21" value="" style="edgeStyle=orthogonalEdgeStyle;rounded=0;orthogonalLoop=1;jettySize=auto;html=1;" edge="1" parent="1" source="GRMmmIgCWsTg24t24DnC-18" target="GRMmmIgCWsTg24t24DnC-20">
          <mxGeometry relative="1" as="geometry" />
        </mxCell>
        <mxCell id="GRMmmIgCWsTg24t24DnC-18" value="Click Next" style="rounded=1;whiteSpace=wrap;html=1;fillColor=#dae8fc;strokeColor=#6c8ebf;" vertex="1" parent="1">
          <mxGeometry x="820" y="400" width="120" height="60" as="geometry" />
        </mxCell>
        <mxCell id="GRMmmIgCWsTg24t24DnC-20" value="Post" style="rounded=1;whiteSpace=wrap;html=1;fillColor=#dae8fc;strokeColor=#6c8ebf;" vertex="1" parent="1">
          <mxGeometry x="1010" y="400" width="120" height="60" as="geometry" />
        </mxCell>
        <mxCell id="GRMmmIgCWsTg24t24DnC-26" value="" style="edgeStyle=orthogonalEdgeStyle;rounded=0;orthogonalLoop=1;jettySize=auto;html=1;" edge="1" parent="1" source="GRMmmIgCWsTg24t24DnC-23" target="GRMmmIgCWsTg24t24DnC-25">
          <mxGeometry relative="1" as="geometry" />
        </mxCell>
        <mxCell id="GRMmmIgCWsTg24t24DnC-23" value="Add Job Criteria" style="rounded=1;whiteSpace=wrap;html=1;fillColor=#dae8fc;strokeColor=#6c8ebf;" vertex="1" parent="1">
          <mxGeometry x="255" y="630" width="120" height="60" as="geometry" />
        </mxCell>
        <mxCell id="GRMmmIgCWsTg24t24DnC-28" value="" style="edgeStyle=orthogonalEdgeStyle;rounded=0;orthogonalLoop=1;jettySize=auto;html=1;" edge="1" parent="1" source="GRMmmIgCWsTg24t24DnC-25">
          <mxGeometry relative="1" as="geometry">
            <mxPoint x="315" y="890" as="targetPoint" />
          </mxGeometry>
        </mxCell>
        <mxCell id="GRMmmIgCWsTg24t24DnC-30" value="" style="edgeStyle=orthogonalEdgeStyle;rounded=0;orthogonalLoop=1;jettySize=auto;html=1;" edge="1" parent="1" source="GRMmmIgCWsTg24t24DnC-25" target="GRMmmIgCWsTg24t24DnC-29">
          <mxGeometry relative="1" as="geometry" />
        </mxCell>
        <mxCell id="GRMmmIgCWsTg24t24DnC-25" value="Appication collector&amp;nbsp;&lt;br&gt;with email?" style="rhombus;whiteSpace=wrap;html=1;fillColor=#fff2cc;strokeColor=#d6b656;" vertex="1" parent="1">
          <mxGeometry x="243.75" y="740" width="142.5" height="100" as="geometry" />
        </mxCell>
        <mxCell id="GRMmmIgCWsTg24t24DnC-34" value="" style="edgeStyle=orthogonalEdgeStyle;rounded=0;orthogonalLoop=1;jettySize=auto;html=1;" edge="1" parent="1" source="GRMmmIgCWsTg24t24DnC-29" target="GRMmmIgCWsTg24t24DnC-33">
          <mxGeometry relative="1" as="geometry" />
        </mxCell>
        <mxCell id="GRMmmIgCWsTg24t24DnC-29" value="Select external website" style="rounded=1;whiteSpace=wrap;html=1;fillColor=#dae8fc;strokeColor=#6c8ebf;" vertex="1" parent="1">
          <mxGeometry x="450" y="760" width="120" height="60" as="geometry" />
        </mxCell>
        <mxCell id="GRMmmIgCWsTg24t24DnC-36" value="" style="edgeStyle=orthogonalEdgeStyle;rounded=0;orthogonalLoop=1;jettySize=auto;html=1;" edge="1" parent="1" source="GRMmmIgCWsTg24t24DnC-32" target="GRMmmIgCWsTg24t24DnC-35">
          <mxGeometry relative="1" as="geometry" />
        </mxCell>
        <mxCell id="GRMmmIgCWsTg24t24DnC-32" value="Give company email address" style="rounded=1;whiteSpace=wrap;html=1;fillColor=#dae8fc;strokeColor=#6c8ebf;" vertex="1" parent="1">
          <mxGeometry x="255" y="890" width="120" height="60" as="geometry" />
        </mxCell>
        <mxCell id="GRMmmIgCWsTg24t24DnC-37" style="edgeStyle=orthogonalEdgeStyle;rounded=0;orthogonalLoop=1;jettySize=auto;html=1;entryX=1;entryY=0.5;entryDx=0;entryDy=0;" edge="1" parent="1" source="GRMmmIgCWsTg24t24DnC-33" target="GRMmmIgCWsTg24t24DnC-35">
          <mxGeometry relative="1" as="geometry">
            <Array as="points">
              <mxPoint x="690" y="1030" />
            </Array>
          </mxGeometry>
        </mxCell>
        <mxCell id="GRMmmIgCWsTg24t24DnC-33" value="Give company website" style="whiteSpace=wrap;html=1;rounded=1;fillColor=#dae8fc;strokeColor=#6c8ebf;" vertex="1" parent="1">
          <mxGeometry x="630" y="760" width="120" height="60" as="geometry" />
        </mxCell>
        <mxCell id="GRMmmIgCWsTg24t24DnC-39" value="" style="edgeStyle=orthogonalEdgeStyle;rounded=0;orthogonalLoop=1;jettySize=auto;html=1;" edge="1" parent="1" source="GRMmmIgCWsTg24t24DnC-35" target="GRMmmIgCWsTg24t24DnC-38">
          <mxGeometry relative="1" as="geometry" />
        </mxCell>
        <mxCell id="GRMmmIgCWsTg24t24DnC-35" value="Continue" style="rounded=1;whiteSpace=wrap;html=1;fillColor=#dae8fc;strokeColor=#6c8ebf;" vertex="1" parent="1">
          <mxGeometry x="255" y="1000" width="120" height="60" as="geometry" />
        </mxCell>
        <mxCell id="GRMmmIgCWsTg24t24DnC-41" value="" style="edgeStyle=orthogonalEdgeStyle;rounded=0;orthogonalLoop=1;jettySize=auto;html=1;" edge="1" parent="1" source="GRMmmIgCWsTg24t24DnC-38" target="GRMmmIgCWsTg24t24DnC-40">
          <mxGeometry relative="1" as="geometry" />
        </mxCell>
        <mxCell id="GRMmmIgCWsTg24t24DnC-43" value="" style="edgeStyle=orthogonalEdgeStyle;rounded=0;orthogonalLoop=1;jettySize=auto;html=1;" edge="1" parent="1" source="GRMmmIgCWsTg24t24DnC-38" target="GRMmmIgCWsTg24t24DnC-42">
          <mxGeometry relative="1" as="geometry" />
        </mxCell>
        <mxCell id="GRMmmIgCWsTg24t24DnC-38" value="Post for everyone" style="rhombus;whiteSpace=wrap;html=1;fillColor=#fff2cc;strokeColor=#d6b656;" vertex="1" parent="1">
          <mxGeometry x="243.75" y="1110" width="142.5" height="100" as="geometry" />
        </mxCell>
        <mxCell id="GRMmmIgCWsTg24t24DnC-45" value="" style="edgeStyle=orthogonalEdgeStyle;rounded=0;orthogonalLoop=1;jettySize=auto;html=1;" edge="1" parent="1" source="GRMmmIgCWsTg24t24DnC-40" target="GRMmmIgCWsTg24t24DnC-44">
          <mxGeometry relative="1" as="geometry" />
        </mxCell>
        <mxCell id="GRMmmIgCWsTg24t24DnC-40" value="Post" style="rounded=1;whiteSpace=wrap;html=1;fillColor=#dae8fc;strokeColor=#6c8ebf;" vertex="1" parent="1">
          <mxGeometry x="255" y="1260" width="120" height="60" as="geometry" />
        </mxCell>
        <mxCell id="GRMmmIgCWsTg24t24DnC-46" style="edgeStyle=orthogonalEdgeStyle;rounded=0;orthogonalLoop=1;jettySize=auto;html=1;entryX=1;entryY=0.5;entryDx=0;entryDy=0;" edge="1" parent="1" source="GRMmmIgCWsTg24t24DnC-42" target="GRMmmIgCWsTg24t24DnC-44">
          <mxGeometry relative="1" as="geometry">
            <Array as="points">
              <mxPoint x="500" y="1410" />
            </Array>
          </mxGeometry>
        </mxCell>
        <mxCell id="GRMmmIgCWsTg24t24DnC-42" value="Post for connections" style="rounded=1;whiteSpace=wrap;html=1;fillColor=#dae8fc;strokeColor=#6c8ebf;" vertex="1" parent="1">
          <mxGeometry x="440" y="1130" width="120" height="60" as="geometry" />
        </mxCell>
        <mxCell id="GRMmmIgCWsTg24t24DnC-44" value="End" style="ellipse;whiteSpace=wrap;html=1;fillColor=#f8cecc;strokeColor=#b85450;" vertex="1" parent="1">
          <mxGeometry x="255" y="1370" width="120" height="80" as="geometry" />
        </mxCell>
        <mxCell id="GRMmmIgCWsTg24t24DnC-49" style="edgeStyle=orthogonalEdgeStyle;rounded=0;orthogonalLoop=1;jettySize=auto;html=1;exitX=0.5;exitY=1;exitDx=0;exitDy=0;" edge="1" parent="1" source="GRMmmIgCWsTg24t24DnC-20">
          <mxGeometry relative="1" as="geometry">
            <mxPoint x="500" y="1410" as="targetPoint" />
            <mxPoint x="1080" y="470" as="sourcePoint" />
            <Array as="points">
              <mxPoint x="1070" y="1410" />
            </Array>
          </mxGeometry>
        </mxCell>
        <mxCell id="GRMmmIgCWsTg24t24DnC-50" value="1" style="text;html=1;align=center;verticalAlign=middle;resizable=0;points=[];autosize=1;strokeColor=none;fillColor=none;" vertex="1" parent="1">
          <mxGeometry x="100" y="138" width="30" height="30" as="geometry" />
        </mxCell>
        <mxCell id="GRMmmIgCWsTg24t24DnC-51" value="2" style="text;html=1;align=center;verticalAlign=middle;resizable=0;points=[];autosize=1;strokeColor=none;fillColor=none;" vertex="1" parent="1">
          <mxGeometry x="100" y="250" width="30" height="30" as="geometry" />
        </mxCell>
        <mxCell id="GRMmmIgCWsTg24t24DnC-52" value="3" style="text;html=1;align=center;verticalAlign=middle;resizable=0;points=[];autosize=1;strokeColor=none;fillColor=none;" vertex="1" parent="1">
          <mxGeometry x="100" y="360" width="30" height="30" as="geometry" />
        </mxCell>
        <mxCell id="GRMmmIgCWsTg24t24DnC-53" value="4" style="text;html=1;align=center;verticalAlign=middle;resizable=0;points=[];autosize=1;strokeColor=none;fillColor=none;" vertex="1" parent="1">
          <mxGeometry x="200" y="400" width="30" height="30" as="geometry" />
        </mxCell>
        <mxCell id="GRMmmIgCWsTg24t24DnC-54" value="5" style="text;html=1;align=center;verticalAlign=middle;resizable=0;points=[];autosize=1;strokeColor=none;fillColor=none;" vertex="1" parent="1">
          <mxGeometry x="386.25" y="400" width="30" height="30" as="geometry" />
        </mxCell>
        <mxCell id="GRMmmIgCWsTg24t24DnC-55" value="6" style="text;html=1;align=center;verticalAlign=middle;resizable=0;points=[];autosize=1;strokeColor=none;fillColor=none;" vertex="1" parent="1">
          <mxGeometry x="570" y="400" width="30" height="30" as="geometry" />
        </mxCell>
        <mxCell id="GRMmmIgCWsTg24t24DnC-56" value="7" style="text;html=1;align=center;verticalAlign=middle;resizable=0;points=[];autosize=1;strokeColor=none;fillColor=none;" vertex="1" parent="1">
          <mxGeometry x="760" y="400" width="30" height="30" as="geometry" />
        </mxCell>
        <mxCell id="GRMmmIgCWsTg24t24DnC-57" value="8" style="text;html=1;align=center;verticalAlign=middle;resizable=0;points=[];autosize=1;strokeColor=none;fillColor=none;" vertex="1" parent="1">
          <mxGeometry x="960" y="400" width="30" height="30" as="geometry" />
        </mxCell>
        <mxCell id="GRMmmIgCWsTg24t24DnC-58" value="9" style="text;html=1;align=center;verticalAlign=middle;resizable=0;points=[];autosize=1;strokeColor=none;fillColor=none;" vertex="1" parent="1">
          <mxGeometry x="1040" y="490" width="30" height="30" as="geometry" />
        </mxCell>
        <mxCell id="GRMmmIgCWsTg24t24DnC-59" value="10" style="text;html=1;align=center;verticalAlign=middle;resizable=0;points=[];autosize=1;strokeColor=none;fillColor=none;" vertex="1" parent="1">
          <mxGeometry x="280" y="478" width="40" height="30" as="geometry" />
        </mxCell>
        <mxCell id="GRMmmIgCWsTg24t24DnC-62" style="edgeStyle=orthogonalEdgeStyle;rounded=0;orthogonalLoop=1;jettySize=auto;html=1;entryX=1;entryY=0.5;entryDx=0;entryDy=0;" edge="1" parent="1" source="GRMmmIgCWsTg24t24DnC-60" target="GRMmmIgCWsTg24t24DnC-10">
          <mxGeometry relative="1" as="geometry" />
        </mxCell>
        <mxCell id="GRMmmIgCWsTg24t24DnC-60" value="Create new job" style="rounded=1;whiteSpace=wrap;html=1;fillColor=#dae8fc;strokeColor=#6c8ebf;" vertex="1" parent="1">
          <mxGeometry x="625" y="520" width="120" height="60" as="geometry" />
        </mxCell>
        <mxCell id="GRMmmIgCWsTg24t24DnC-63" value="11" style="text;html=1;align=center;verticalAlign=middle;resizable=0;points=[];autosize=1;strokeColor=none;fillColor=none;" vertex="1" parent="1">
          <mxGeometry x="640" y="478" width="40" height="30" as="geometry" />
        </mxCell>
        <mxCell id="GRMmmIgCWsTg24t24DnC-64" value="12" style="text;html=1;align=center;verticalAlign=middle;resizable=0;points=[];autosize=1;strokeColor=none;fillColor=none;" vertex="1" parent="1">
          <mxGeometry x="480" y="520" width="40" height="30" as="geometry" />
        </mxCell>
        <mxCell id="GRMmmIgCWsTg24t24DnC-65" value="13" style="text;html=1;align=center;verticalAlign=middle;resizable=0;points=[];autosize=1;strokeColor=none;fillColor=none;" vertex="1" parent="1">
          <mxGeometry x="280" y="590" width="40" height="30" as="geometry" />
        </mxCell>
        <mxCell id="GRMmmIgCWsTg24t24DnC-66" value="14" style="text;html=1;align=center;verticalAlign=middle;resizable=0;points=[];autosize=1;strokeColor=none;fillColor=none;" vertex="1" parent="1">
          <mxGeometry x="280" y="700" width="40" height="30" as="geometry" />
        </mxCell>
        <mxCell id="GRMmmIgCWsTg24t24DnC-67" value="15" style="text;html=1;align=center;verticalAlign=middle;resizable=0;points=[];autosize=1;strokeColor=none;fillColor=none;" vertex="1" parent="1">
          <mxGeometry x="390" y="760" width="40" height="30" as="geometry" />
        </mxCell>
        <mxCell id="GRMmmIgCWsTg24t24DnC-68" value="16" style="text;html=1;align=center;verticalAlign=middle;resizable=0;points=[];autosize=1;strokeColor=none;fillColor=none;" vertex="1" parent="1">
          <mxGeometry x="580" y="760" width="40" height="30" as="geometry" />
        </mxCell>
        <mxCell id="GRMmmIgCWsTg24t24DnC-69" value="17" style="text;html=1;align=center;verticalAlign=middle;resizable=0;points=[];autosize=1;strokeColor=none;fillColor=none;" vertex="1" parent="1">
          <mxGeometry x="650" y="860" width="40" height="30" as="geometry" />
        </mxCell>
        <mxCell id="GRMmmIgCWsTg24t24DnC-70" value="18" style="text;html=1;align=center;verticalAlign=middle;resizable=0;points=[];autosize=1;strokeColor=none;fillColor=none;" vertex="1" parent="1">
          <mxGeometry x="280" y="850" width="40" height="30" as="geometry" />
        </mxCell>
        <mxCell id="GRMmmIgCWsTg24t24DnC-71" value="19" style="text;html=1;align=center;verticalAlign=middle;resizable=0;points=[];autosize=1;strokeColor=none;fillColor=none;" vertex="1" parent="1">
          <mxGeometry x="280" y="960" width="40" height="30" as="geometry" />
        </mxCell>
        <mxCell id="GRMmmIgCWsTg24t24DnC-72" value="20" style="text;html=1;align=center;verticalAlign=middle;resizable=0;points=[];autosize=1;strokeColor=none;fillColor=none;" vertex="1" parent="1">
          <mxGeometry x="280" y="1070" width="40" height="30" as="geometry" />
        </mxCell>
        <mxCell id="GRMmmIgCWsTg24t24DnC-73" value="21" style="text;html=1;align=center;verticalAlign=middle;resizable=0;points=[];autosize=1;strokeColor=none;fillColor=none;" vertex="1" parent="1">
          <mxGeometry x="385" y="1130" width="40" height="30" as="geometry" />
        </mxCell>
        <mxCell id="GRMmmIgCWsTg24t24DnC-74" value="22" style="text;html=1;align=center;verticalAlign=middle;resizable=0;points=[];autosize=1;strokeColor=none;fillColor=none;" vertex="1" parent="1">
          <mxGeometry x="460" y="1220" width="40" height="30" as="geometry" />
        </mxCell>
        <mxCell id="GRMmmIgCWsTg24t24DnC-75" value="23" style="text;html=1;align=center;verticalAlign=middle;resizable=0;points=[];autosize=1;strokeColor=none;fillColor=none;" vertex="1" parent="1">
          <mxGeometry x="280" y="1220" width="40" height="30" as="geometry" />
        </mxCell>
        <mxCell id="GRMmmIgCWsTg24t24DnC-76" value="24" style="text;html=1;align=center;verticalAlign=middle;resizable=0;points=[];autosize=1;strokeColor=none;fillColor=none;" vertex="1" parent="1">
          <mxGeometry x="280" y="1330" width="40" height="30" as="geometry" />
        </mxCell>
        <mxCell id="GRMmmIgCWsTg24t24DnC-77" value="Yes" style="text;html=1;align=center;verticalAlign=middle;resizable=0;points=[];autosize=1;strokeColor=none;fillColor=none;" vertex="1" parent="1">
          <mxGeometry x="320" y="478" width="40" height="30" as="geometry" />
        </mxCell>
        <mxCell id="GRMmmIgCWsTg24t24DnC-79" value="No" style="text;html=1;align=center;verticalAlign=middle;resizable=0;points=[];autosize=1;strokeColor=none;fillColor=none;" vertex="1" parent="1">
          <mxGeometry x="381.25" y="430" width="40" height="30" as="geometry" />
        </mxCell>
        <mxCell id="GRMmmIgCWsTg24t24DnC-80" value="Yes" style="text;html=1;align=center;verticalAlign=middle;resizable=0;points=[];autosize=1;strokeColor=none;fillColor=none;" vertex="1" parent="1">
          <mxGeometry x="755" y="430" width="40" height="30" as="geometry" />
        </mxCell>
        <mxCell id="GRMmmIgCWsTg24t24DnC-81" value="No" style="text;html=1;align=center;verticalAlign=middle;resizable=0;points=[];autosize=1;strokeColor=none;fillColor=none;" vertex="1" parent="1">
          <mxGeometry x="690" y="478" width="40" height="30" as="geometry" />
        </mxCell>
        <mxCell id="GRMmmIgCWsTg24t24DnC-82" value="Yes" style="text;html=1;align=center;verticalAlign=middle;resizable=0;points=[];autosize=1;strokeColor=none;fillColor=none;" vertex="1" parent="1">
          <mxGeometry x="320" y="850" width="40" height="30" as="geometry" />
        </mxCell>
        <mxCell id="GRMmmIgCWsTg24t24DnC-83" value="No" style="text;html=1;align=center;verticalAlign=middle;resizable=0;points=[];autosize=1;strokeColor=none;fillColor=none;" vertex="1" parent="1">
          <mxGeometry x="390" y="800" width="40" height="30" as="geometry" />
        </mxCell>
        <mxCell id="GRMmmIgCWsTg24t24DnC-84" value="Yes" style="text;html=1;align=center;verticalAlign=middle;resizable=0;points=[];autosize=1;strokeColor=none;fillColor=none;" vertex="1" parent="1">
          <mxGeometry x="320" y="1220" width="40" height="30" as="geometry" />
        </mxCell>
        <mxCell id="GRMmmIgCWsTg24t24DnC-85" value="No" style="text;html=1;align=center;verticalAlign=middle;resizable=0;points=[];autosize=1;strokeColor=none;fillColor=none;" vertex="1" parent="1">
          <mxGeometry x="385" y="1160" width="40" height="30" as="geometry" />
        </mxCell>
      </root>
    </mxGraphModel>
  </diagram>
</mxfile>
